<?xml version="1.0" encoding="UTF-8"?>
<svg width="61.749mm" height="59.828mm" version="1.1" viewBox="0 0 61.749 59.828" xmlns="http://www.w3.org/2000/svg" xmlns:cc="http://creativecommons.org/ns#" xmlns:dc="http://purl.org/dc/elements/1.1/" xmlns:rdf="http://www.w3.org/1999/02/22-rdf-syntax-ns#">
 <title>dc-logo</title>
 <metadata>
  <rdf:RDF>
   <cc:Work rdf:about="">
    <dc:format>image/svg+xml</dc:format>
    <dc:type rdf:resource="http://purl.org/dc/dcmitype/StillImage"/>
    <dc:title>dc-logo</dc:title>
   </cc:Work>
  </rdf:RDF>
 </metadata>
 <g transform="translate(-66.965 -44.212)" fill-opacity=".97647" stroke="#000">
  <ellipse cx="97.839" cy="74.126" rx="30.874" ry="29.913" fill="#2e3436" stroke-width=".00066903"/>
  <path transform="scale(.26458)" d="m435.76 201.02a71.787 96.256 86.416 0 0-0.89844 0.10547 71.787 96.256 86.416 0 0-64.684 29.881 110.9 72.06 1.5305 0 1 31.988 52.59 110.9 72.06 1.5305 0 1-22.402 41.676 71.787 96.256 86.416 0 0 79.451 17.723 71.787 96.256 86.416 0 0 0.68945-0.0879c-4.9116-29.768-14.478-85.551-24.145-141.89z" fill="#ff0" stroke-width=".0020991"/>
  <path d="m77.385 55.139c-0.46243 15.135-0.91942 30.122-1.1054 38.114a29.343 19.066 1.5305 0 0 0.21187 0.0062 29.343 19.066 1.5305 0 0 23.989-7.1975 18.994 25.468 86.416 0 1-7.4414-10.971 18.994 25.468 86.416 0 1 4.9051-13.97 29.343 19.066 1.5305 0 0-20.283-5.9753 29.343 19.066 1.5305 0 0-0.27595-0.0067z" fill="#00f" stroke-width=".00059728"/>
  <path d="m99.72 85.291c-3.5855-2.8124-5.8242-6.4083-6.4883-10.421-0.16772-1.0135-0.16858-3.2821-0.0016-4.3012 0.51693-3.1554 1.9114-5.9681 4.323-8.7196 0.20417-0.23294 0.42589-0.42355 0.4927-0.42357 0.31558-1e-4 2.5519 1.8625 3.7531 3.1258 4.4794 4.7112 5.6314 10.411 3.1557 15.613-0.49415 1.0383-0.93758 1.7785-1.5766 2.6317-0.97554 1.3025-2.6022 2.9595-2.9052 2.9595-0.0967 0-0.39707-0.18524-0.75272-0.46421z" fill="#0f0" stroke-width=".00025446"/>
 </g>
</svg>
